# xmcd
#
# Track frame offsets: 
#        150
#        20011
#        40479
#        61042
#        81716
#        105094
#        124416
#        152301
#        172614
#        196670
#        220313
#
# Disc length: 3125 seconds
#
# Revision: 1
# Processed by: cddbd v1.5.2PL0 Copyright (c) Steve Scherf et al.
# Submitted via: ExactAudioCopy v0.99pb5
#
DISCID=850c330b
DTITLE=Bobby Lyle - Smooth
DYEAR=2004
DGENRE=Jazz
TTITLE0=Tippin
TTITLE1=Step in the Name of Love
TTITLE2=La Clave
TTITLE3=Passion by the Sea
TTITLE4=I'm Going to Love You Just a Little More Baby
TTITLE5=Desert Ride
TTITLE6=Road to Redemption
TTITLE7=Hip Swing
TTITLE8=Dance'n
TTITLE9=Back Door
TTITLE10=Easy Living
EXTD=YEAR: 2004
EXTT0=
EXTT1=
EXTT2=
EXTT3=
EXTT4=
EXTT5=
EXTT6=
EXTT7=
EXTT8=
EXTT9=
EXTT10=
PLAYORDER=
